<svg width="17" height="17" viewBox="0 0 17 17" fill="none" xmlns="http://www.w3.org/2000/svg">
<path d="M0.203213 8.89386C0.106666 8.96125 0.038575 9.06209 0.0121364 9.17682C-0.0143022 9.29155 0.00279433 9.41202 0.0601126 9.51486L1.22651 11.5345C1.34621 11.7415 1.62071 11.827 1.83581 11.7217L5.39801 9.99636V16.192H7.19801V9.12336L10.8619 7.34766L8.50391 3.26166L0.203213 8.89386ZM15.7093 1.82526C15.2243 0.98651 14.4261 0.374668 13.4901 0.124222C12.5541 -0.126225 11.557 0.0052192 10.7179 0.489663C9.89891 0.962163 9.36071 1.71276 9.09701 2.54976L11.7754 7.19016C12.6313 7.38096 13.5511 7.28916 14.3719 6.81666C15.2112 6.3321 15.8235 5.53401 16.0743 4.59794C16.3252 3.66188 16.1939 2.66452 15.7093 1.82526Z" fill="white"/>
</svg>
