<svg width="229" height="174" viewBox="0 0 229 174" fill="none" xmlns="http://www.w3.org/2000/svg">
<g id="entypo:modern-mic">
<path id="Vector" d="M214.5 124.657C215.723 125.511 216.586 126.788 216.92 128.242C217.255 129.695 217.039 131.221 216.313 132.523L201.538 158.105C200.022 160.727 196.545 161.81 193.821 160.476L148.699 138.622V217.1H125.899V127.564L79.49 105.072L109.358 53.3162L214.5 124.657ZM18.0896 35.1218C24.2333 24.4976 34.3441 16.7476 46.1998 13.5753C58.0554 10.4029 70.6855 12.0679 81.314 18.2042C91.688 24.1892 98.5052 33.6968 101.845 44.2988L67.919 103.077C57.0776 105.494 45.4268 104.331 35.03 98.3462C24.3996 92.2085 16.6428 82.0992 13.4658 70.2424C10.2889 58.3856 11.9521 45.7524 18.0896 35.1218Z" fill="white" fill-opacity="0.1"/>
</g>
</svg>
